<?xml version="1.0" encoding="utf-8"?>
<!-- Generator: Adobe Illustrator 19.0.0, SVG Export Plug-In . SVG Version: 6.00 Build 0)  -->
<svg version="1.1" id="Layer_2" xmlns="http://www.w3.org/2000/svg" xmlns:xlink="http://www.w3.org/1999/xlink" x="0px" y="0px"
	 viewBox="-86.3 362.3 38 38" style="enable-background:new -86.3 362.3 38 38;" xml:space="preserve">
<style type="text/css">
	.st0{fill:#444444;}
	.st1{fill:#7D0000;}
	.st2{fill:#FFFFFF;}
	.st3{fill:#4D0000;}
</style>
<ellipse class="st0" cx="-67.3" cy="399.8" rx="6" ry="0.5"/>
<g>
	<path class="st1" d="M-67.3,364.3c-8.2,0-14.9,6.7-14.9,14.9c0,10.9,11.6,20.5,14.9,20.5c3.3,0,14.9-9.5,14.9-20.5
		C-52.3,371-59,364.3-67.3,364.3z M-67.3,391.4c-6.8,0-12.3-5.5-12.3-12.3c0-6.8,5.5-12.3,12.3-12.3s12.3,5.5,12.3,12.3
		C-54.9,385.9-60.5,391.4-67.3,391.4z"/>
</g>
<circle class="st2" cx="-67.3" cy="379.1" r="12.3"/>
<circle class="st3" cx="-67.3" cy="379.1" r="10.2"/>
</svg>
